<?xml version="1.0" standalone="no"?>
<!DOCTYPE svg PUBLIC "-//W3C//DTD SVG 20010904//EN"
 "http://www.w3.org/TR/2001/REC-SVG-20010904/DTD/svg10.dtd">
<svg version="1.0" xmlns="http://www.w3.org/2000/svg"
 width="998.000000pt" height="998.000000pt" viewBox="0 0 998.000000 998.000000"
 preserveAspectRatio="xMidYMid meet">
<metadata>
Created by potrace 1.16, written by Peter Selinger 2001-2019
</metadata>
<g transform="translate(0.000000,998.000000) scale(0.100000,-0.100000)"
fill="#000000" stroke="none">
<path d="M735 8779 c-328 -48 -599 -285 -702 -614 l-28 -90 0 -2940 0 -2940
23 -78 c93 -323 328 -548 649 -624 75 -17 243 -18 4313 -18 4070 0 4238 1
4313 18 321 76 556 301 649 624 l23 78 0 2940 0 2940 -28 90 c-93 296 -315
513 -613 597 l-79 23 -4230 1 c-2366 1 -4256 -2 -4290 -7z m8527 -369 c199
-61 348 -249 360 -454 3 -48 2 -49 -42 -76 -25 -15 -1057 -610 -2295 -1321
-2068 -1189 -2254 -1294 -2295 -1294 -42 0 -216 98 -2340 1320 l-2295 1321 3
49 c12 204 153 384 352 452 l65 22 4211 1 c4174 0 4212 0 4276 -20z m-6734
-2167 c1192 -685 2190 -1259 2217 -1274 142 -79 348 -79 490 0 27 15 1025 589
2217 1274 1193 686 2170 1247 2173 1247 3 0 4 -1178 3 -2617 l-3 -2618 -22
-66 c-59 -172 -206 -310 -373 -348 -63 -15 -8417 -15 -8480 0 -167 38 -314
176 -373 348 l-22 66 -3 2618 c-1 1439 0 2617 3 2617 3 0 980 -561 2173 -1247z"/>
</g>
</svg>
