<?xml version="1.0" standalone="no"?>
<!DOCTYPE svg PUBLIC "-//W3C//DTD SVG 20010904//EN"
 "http://www.w3.org/TR/2001/REC-SVG-20010904/DTD/svg10.dtd">
<svg version="1.0" xmlns="http://www.w3.org/2000/svg"
 width="512.000000pt" height="512.000000pt" viewBox="0 0 512.000000 512.000000"
 preserveAspectRatio="xMidYMid meet">
<metadata>
Created by potrace 1.16, written by Peter Selinger 2001-2019
</metadata>
<g transform="translate(0.000000,512.000000) scale(0.100000,-0.100000)"
fill="#000000" stroke="none">
<path d="M2315 5049 c-585 -56 -1142 -319 -1562 -737 -392 -391 -645 -892
-729 -1447 -26 -171 -26 -562 0 -730 85 -556 330 -1047 716 -1436 217 -218
419 -364 695 -499 215 -106 329 -144 415 -138 121 9 226 88 269 202 19 53 21
76 21 317 0 289 -3 307 -63 355 l-35 28 37 27 c39 27 71 88 71 132 0 47 30
123 69 175 50 66 61 123 36 188 -26 69 -65 92 -202 121 -521 109 -789 362
-843 797 -35 272 31 547 174 731 26 33 49 70 53 83 6 24 2 84 -16 262 -11 98
-5 227 11 236 26 16 226 -77 378 -176 l95 -62 75 5 c41 3 111 12 155 21 44 8
158 21 253 27 189 14 444 2 597 -27 44 -9 114 -18 155 -21 l75 -5 95 62 c166
107 360 194 383 171 13 -13 11 -238 -2 -321 -14 -85 -14 -166 1 -193 6 -12 29
-44 51 -72 48 -60 120 -208 141 -290 44 -173 44 -390 1 -560 -92 -362 -346
-568 -827 -670 -126 -27 -153 -42 -186 -106 -34 -65 -27 -124 26 -198 74 -105
75 -113 81 -591 6 -418 6 -426 29 -472 50 -102 148 -167 262 -176 86 -6 195
30 415 138 417 203 748 492 1006 880 98 146 216 376 274 534 48 130 109 371
130 516 36 247 30 580 -15 826 -95 516 -343 987 -713 1356 -541 539 -1293 809
-2052 737z m466 -179 c1007 -99 1844 -820 2089 -1800 52 -207 65 -322 65 -575
0 -244 -11 -340 -60 -550 -145 -614 -556 -1170 -1107 -1496 -161 -96 -419
-209 -475 -209 -40 0 -91 29 -113 65 -19 31 -20 49 -20 396 0 456 -11 541 -83
660 l-34 57 86 17 c396 79 707 289 851 575 83 165 115 317 114 545 0 280 -65
496 -199 673 l-37 47 9 70 c12 108 10 394 -5 441 -6 23 -22 56 -35 75 -22 33
-25 34 -94 37 -43 2 -97 -4 -135 -13 -83 -22 -247 -100 -355 -170 l-86 -57
-82 16 c-46 8 -141 20 -211 26 -71 6 -151 15 -179 19 -67 12 -446 -13 -602
-39 l-121 -21 -86 56 c-106 70 -271 148 -352 169 -71 18 -176 21 -205 6 -27
-15 -55 -75 -69 -148 -12 -61 -8 -324 6 -427 5 -35 1 -46 -30 -87 -85 -111
-151 -266 -183 -427 -21 -107 -23 -373 -4 -481 84 -471 408 -771 959 -886 74
-16 81 -19 68 -33 -27 -30 -74 -142 -86 -206 l-12 -64 -69 -16 c-38 -8 -104
-20 -146 -26 -196 -27 -302 34 -485 281 -98 132 -128 163 -180 184 -37 16
-407 80 -415 72 -2 -2 71 -62 163 -132 192 -147 243 -204 300 -332 89 -201
158 -283 299 -353 80 -40 91 -43 188 -47 89 -4 216 6 309 25 l28 6 0 -228 c0
-211 -1 -230 -20 -260 -22 -36 -73 -65 -114 -65 -14 0 -68 16 -119 36 -727
285 -1268 899 -1457 1653 -53 214 -65 315 -65 566 0 240 12 358 57 544 146
620 537 1158 1084 1493 429 264 959 387 1455 338z"/>
</g>
</svg>
