<?xml version="1.0" standalone="no"?>
<!DOCTYPE svg PUBLIC "-//W3C//DTD SVG 20010904//EN"
 "http://www.w3.org/TR/2001/REC-SVG-20010904/DTD/svg10.dtd">
<svg version="1.0" xmlns="http://www.w3.org/2000/svg"
 width="512.000000pt" height="512.000000pt" viewBox="0 0 512.000000 512.000000"
 preserveAspectRatio="xMidYMid meet">
<metadata>
Created by potrace 1.16, written by Peter Selinger 2001-2019
</metadata>
<g transform="translate(0.000000,512.000000) scale(0.100000,-0.100000)"
fill="#000000" stroke="none">
<path d="M329 5016 c-101 -41 -172 -108 -218 -205 l-26 -56 0 -2195 0 -2195
27 -57 c37 -80 107 -152 187 -191 l66 -32 2195 0 2195 0 66 32 c80 39 150 111
187 191 l27 57 0 2195 0 2195 -32 66 c-39 80 -111 150 -191 187 l-57 27 -2185
2 -2185 3 -56 -24z m4329 -143 c78 -9 148 -55 186 -123 l31 -55 0 -2135 0
-2135 -31 -55 c-38 -68 -108 -114 -186 -123 -69 -9 -4127 -9 -4196 0 -78 9
-148 55 -186 123 l-31 55 0 2135 0 2135 31 55 c36 63 100 110 167 121 53 8
4144 11 4215 2z"/>
<path d="M1152 4225 c-29 -8 -67 -22 -84 -31 -57 -29 -130 -107 -159 -169 -25
-51 -29 -72 -29 -145 0 -111 31 -182 113 -257 78 -70 147 -97 257 -97 75 0 93
4 151 31 86 40 138 88 180 165 32 59 34 69 34 158 0 89 -2 99 -34 158 -19 34
-52 79 -74 98 -92 84 -241 121 -355 89z m192 -178 c134 -76 139 -232 12 -312
-90 -55 -202 -35 -270 48 -23 30 -31 49 -34 95 -3 50 0 63 26 103 55 85 179
116 266 66z"/>
<path d="M3245 3291 c-151 -25 -309 -91 -420 -176 l-60 -45 -6 69 c-9 118 14
111 -369 111 l-327 0 -21 -23 -22 -23 0 -1142 c0 -1129 0 -1142 20 -1162 19
-19 33 -20 408 -20 383 0 389 0 408 21 18 20 19 51 25 688 6 707 10 760 55
857 54 115 180 194 310 194 75 0 116 -15 167 -59 87 -77 96 -176 97 -1053 0
-594 0 -608 20 -628 19 -19 33 -20 348 -20 309 0 330 1 346 19 16 17 17 81 14
897 -4 863 -4 880 -25 955 -63 225 -166 350 -368 449 -144 71 -229 91 -405 95
-80 2 -167 0 -195 -4z m390 -196 c170 -49 272 -122 346 -245 87 -147 98 -279
99 -1202 l0 -608 -204 0 -204 0 -5 678 c-4 565 -7 689 -20 749 -32 148 -109
251 -227 307 -54 25 -81 31 -156 34 -50 2 -115 -1 -144 -7 -140 -30 -283 -140
-340 -262 -70 -152 -80 -262 -80 -961 l0 -538 -260 0 -260 0 0 1020 0 1020
200 0 200 0 0 -135 c0 -131 1 -137 25 -160 17 -18 35 -25 60 -25 33 0 45 9
123 91 133 140 252 215 398 253 91 23 110 25 239 21 93 -3 140 -9 210 -30z"/>
<path d="M900 3230 c-20 -20 -20 -33 -20 -1168 0 -1100 1 -1150 18 -1165 17
-15 55 -17 345 -17 314 0 328 1 347 20 20 20 20 33 20 1165 0 1132 0 1145 -20
1165 -19 19 -33 20 -345 20 -312 0 -326 -1 -345 -20z m540 -1170 l0 -1020
-200 0 -200 0 0 1020 0 1020 200 0 200 0 0 -1020z"/>
</g>
</svg>
