<?xml version="1.0" standalone="no"?>
<!DOCTYPE svg PUBLIC "-//W3C//DTD SVG 20010904//EN"
 "http://www.w3.org/TR/2001/REC-SVG-20010904/DTD/svg10.dtd">
<svg version="1.0" xmlns="http://www.w3.org/2000/svg"
 width="327.000000pt" height="327.000000pt" viewBox="0 0 327.000000 327.000000"
 preserveAspectRatio="xMidYMid meet">
<metadata>
Created by potrace 1.16, written by Peter Selinger 2001-2019
</metadata>
<g transform="translate(0.000000,327.000000) scale(0.100000,-0.100000)"
fill="#000000" stroke="none">
<path d="M199 2811 c-71 -28 -125 -77 -159 -144 l-30 -60 0 -962 0 -962 30
-60 c34 -68 88 -117 161 -144 47 -18 108 -19 1434 -19 l1384 0 57 21 c68 26
136 89 167 157 l22 47 0 960 0 960 -22 47 c-31 68 -99 131 -167 157 l-57 21
-1387 0 c-1315 -1 -1389 -2 -1433 -19z m2815 -137 c11 -4 -190 -171 -671 -556
-379 -302 -693 -552 -700 -554 -12 -6 -1393 1091 -1393 1107 0 10 2738 13
2764 3z m-2294 -575 c294 -233 613 -485 708 -561 145 -115 179 -138 207 -138
39 0 -9 -37 865 657 l615 489 3 -915 c2 -865 1 -916 -16 -949 -10 -20 -33 -43
-52 -54 -33 -17 -93 -18 -1408 -18 -1508 0 -1417 -4 -1463 61 l-24 34 -3 924
c-2 885 -2 924 15 909 10 -8 259 -206 553 -439z"/>
</g>
</svg>
