<?xml version="1.0" standalone="no"?>
<!DOCTYPE svg PUBLIC "-//W3C//DTD SVG 20010904//EN"
 "http://www.w3.org/TR/2001/REC-SVG-20010904/DTD/svg10.dtd">
<svg version="1.0" xmlns="http://www.w3.org/2000/svg"
 width="1428.000000pt" height="1428.000000pt" viewBox="0 0 1428.000000 1428.000000"
 preserveAspectRatio="xMidYMid meet">
<metadata>
Created by potrace 1.16, written by Peter Selinger 2001-2019
</metadata>
<g transform="translate(0.000000,1428.000000) scale(0.100000,-0.100000)"
fill="#000000" stroke="none">
<path d="M3009 14080 c-298 -53 -591 -195 -827 -400 -277 -242 -479 -605 -542
-977 -20 -114 -20 -183 -20 -5563 0 -5373 0 -5450 20 -5563 120 -701 676
-1257 1377 -1377 113 -20 181 -20 4123 -20 3942 0 4010 0 4123 20 373 63 735
265 979 544 206 237 347 530 398 833 20 113 20 181 20 4287 0 3769 -2 4178
-16 4227 -15 53 -52 90 -1967 2005 l-1952 1952 -82 26 -82 26 -2723 -1 c-2614
-1 -2727 -1 -2829 -19z m5334 -1677 l3 -1218 22 -98 c155 -676 649 -1164 1317
-1302 147 -30 325 -35 1408 -35 l1087 0 0 -3917 c0 -2299 -4 -3970 -10 -4043
-22 -298 -142 -562 -350 -770 -208 -208 -472 -328 -770 -350 -167 -12 -7653
-12 -7820 0 -299 22 -561 141 -770 350 -209 209 -328 471 -350 770 -13 167
-13 10533 0 10700 22 298 142 562 350 770 202 202 474 329 750 349 58 5 1236
9 2617 10 l2512 1 4 -1217z m3267 -1947 l215 -216 -900 0 c-509 0 -948 4
-1010 10 -255 23 -487 120 -677 284 -197 170 -330 395 -391 661 -20 87 -21
121 -24 1064 l-4 974 1288 -1281 c708 -704 1385 -1378 1503 -1496z"/>
<path d="M9644 4942 c-61 -64 -136 -144 -167 -178 l-57 -61 528 -499 528 -499
-1288 -3 -1288 -2 0 -245 0 -245 1286 -2 1286 -3 -333 -325 c-184 -178 -421
-409 -527 -513 l-193 -188 168 -174 c92 -96 171 -175 175 -175 4 0 349 331
765 735 551 535 765 748 783 783 34 63 35 167 2 228 -14 29 -261 268 -783 760
-418 396 -764 720 -768 721 -3 2 -56 -50 -117 -115z"/>
</g>
</svg>
